<mxfile host="app.diagrams.net" agent="Mozilla/5.0 (X11; Linux x86_64; rv:135.0) Gecko/20100101 Firefox/135.0" version="26.0.11">
  <diagram name="Page-1" id="1_7t-P76lmZtNRDh8vAA">
    <mxGraphModel dx="796" dy="486" grid="1" gridSize="10" guides="1" tooltips="1" connect="1" arrows="1" fold="1" page="1" pageScale="1" pageWidth="850" pageHeight="1100" math="0" shadow="0">
      <root>
        <mxCell id="0" />
        <mxCell id="1" parent="0" />
        <mxCell id="RPQStguwNUF31plh696X-48" value="" style="group;fontColor=light-dark(#000000,#000000);" vertex="1" connectable="0" parent="1">
          <mxGeometry x="70" y="120" width="770" height="850" as="geometry" />
        </mxCell>
        <mxCell id="RPQStguwNUF31plh696X-43" value="&lt;div&gt;&lt;font style=&quot;font-size: 25px;&quot;&gt;GUI&lt;/font&gt;&lt;/div&gt;&lt;div&gt;&lt;font style=&quot;font-size: 20px;&quot;&gt;- SWM&lt;/font&gt;&lt;/div&gt;&lt;div&gt;&lt;font style=&quot;font-size: 20px;&quot;&gt;- SDE&lt;/font&gt;&lt;/div&gt;&lt;div&gt;&lt;font style=&quot;font-size: 20px;&quot;&gt;- Niri&lt;/font&gt;&lt;/div&gt;&lt;div&gt;&lt;font style=&quot;font-size: 20px;&quot;&gt;- i3 + Picom&lt;/font&gt;&lt;/div&gt;&lt;div&gt;&lt;font style=&quot;font-size: 20px;&quot;&gt;- SwayFX&lt;/font&gt;&lt;/div&gt;&lt;div&gt;&lt;font style=&quot;font-size: 20px;&quot;&gt;- KDE/Plasma&lt;/font&gt;&lt;/div&gt;&lt;div&gt;&lt;font style=&quot;font-size: 20px;&quot;&gt;- GNOME&lt;/font&gt;&lt;/div&gt;&lt;div&gt;&lt;font style=&quot;font-size: 20px;&quot;&gt;- LXQt&lt;/font&gt;&lt;/div&gt;&lt;div&gt;&lt;font style=&quot;font-size: 20px;&quot;&gt;- Xfce&lt;/font&gt;&lt;/div&gt;&lt;div&gt;&lt;font style=&quot;font-size: 20px;&quot;&gt;- Cinnamon&lt;/font&gt;&lt;/div&gt;&lt;div&gt;&lt;font style=&quot;font-size: 20px;&quot;&gt;- Wayfire&lt;/font&gt;&lt;/div&gt;&lt;div&gt;&lt;font style=&quot;font-size: 20px;&quot;&gt;- Labwc&lt;/font&gt;&lt;/div&gt;&lt;div&gt;&lt;font style=&quot;font-size: 20px;&quot;&gt;- River&lt;/font&gt;&lt;/div&gt;" style="text;html=1;whiteSpace=wrap;overflow=hidden;rounded=0;fontColor=light-dark(#000000,#000000);" vertex="1" parent="RPQStguwNUF31plh696X-48">
          <mxGeometry y="460" width="150" height="350" as="geometry" />
        </mxCell>
        <mxCell id="RPQStguwNUF31plh696X-13" style="edgeStyle=orthogonalEdgeStyle;rounded=0;orthogonalLoop=1;jettySize=auto;html=1;exitX=0;exitY=0.5;exitDx=0;exitDy=0;fontColor=light-dark(#000000,#000000);strokeColor=light-dark(#000000,#000000);strokeWidth=3;" edge="1" parent="RPQStguwNUF31plh696X-48" source="RPQStguwNUF31plh696X-8" target="RPQStguwNUF31plh696X-1">
          <mxGeometry relative="1" as="geometry" />
        </mxCell>
        <mxCell id="RPQStguwNUF31plh696X-8" value="Arch Kernel" style="text;html=1;align=center;verticalAlign=middle;whiteSpace=wrap;rounded=0;fontSize=25;fontColor=light-dark(#000000,#000000);" vertex="1" parent="RPQStguwNUF31plh696X-48">
          <mxGeometry x="550" y="60" width="120" height="77.5" as="geometry" />
        </mxCell>
        <mxCell id="RPQStguwNUF31plh696X-20" style="edgeStyle=orthogonalEdgeStyle;rounded=0;orthogonalLoop=1;jettySize=auto;html=1;entryX=1;entryY=0.75;entryDx=0;entryDy=0;exitX=0;exitY=0.5;exitDx=0;exitDy=0;fontColor=light-dark(#000000,#000000);strokeColor=light-dark(#000000,#000000);strokeWidth=3;" edge="1" parent="RPQStguwNUF31plh696X-48" source="RPQStguwNUF31plh696X-10" target="RPQStguwNUF31plh696X-1">
          <mxGeometry relative="1" as="geometry">
            <Array as="points">
              <mxPoint x="477" y="204" />
              <mxPoint x="477" y="219" />
            </Array>
          </mxGeometry>
        </mxCell>
        <mxCell id="RPQStguwNUF31plh696X-10" value="Coreutils" style="text;html=1;align=center;verticalAlign=middle;whiteSpace=wrap;rounded=0;fontSize=25;fontColor=light-dark(#000000,#000000);" vertex="1" parent="RPQStguwNUF31plh696X-48">
          <mxGeometry x="550" y="170" width="140" height="67.5" as="geometry" />
        </mxCell>
        <mxCell id="RPQStguwNUF31plh696X-1" value="SongbirdOS" style="whiteSpace=wrap;html=1;aspect=fixed;fontSize=20;rounded=1;fontColor=#ffffff;fillColor=none;strokeColor=light-dark(#001DBC,#000000);" vertex="1" parent="RPQStguwNUF31plh696X-48">
          <mxGeometry x="275" y="121.25" width="130" height="130" as="geometry" />
        </mxCell>
        <mxCell id="RPQStguwNUF31plh696X-12" style="edgeStyle=orthogonalEdgeStyle;rounded=0;orthogonalLoop=1;jettySize=auto;html=1;exitX=1;exitY=0.5;exitDx=0;exitDy=0;entryX=0;entryY=0.5;entryDx=0;entryDy=0;fontColor=light-dark(#000000,#000000);strokeColor=light-dark(#000000,#000000);strokeWidth=3;" edge="1" parent="RPQStguwNUF31plh696X-48" source="RPQStguwNUF31plh696X-5" target="RPQStguwNUF31plh696X-1">
          <mxGeometry relative="1" as="geometry" />
        </mxCell>
        <mxCell id="RPQStguwNUF31plh696X-5" value="LFN" style="text;html=1;align=center;verticalAlign=middle;whiteSpace=wrap;rounded=0;fontSize=25;fontColor=light-dark(#000000,#000000);" vertex="1" parent="RPQStguwNUF31plh696X-48">
          <mxGeometry x="65" y="81.25" width="70" height="35" as="geometry" />
        </mxCell>
        <mxCell id="RPQStguwNUF31plh696X-30" value="&lt;div&gt;&lt;font style=&quot;font-size: 25px;&quot;&gt;Shells&lt;/font&gt;&lt;/div&gt;&lt;div&gt;&lt;font style=&quot;font-size: 20px;&quot;&gt;- Bash&lt;/font&gt;&lt;/div&gt;&lt;div&gt;&lt;font style=&quot;font-size: 20px;&quot;&gt;- Zsh&lt;/font&gt;&lt;/div&gt;&lt;div&gt;&lt;font style=&quot;font-size: 20px;&quot;&gt;- Nushell&lt;/font&gt;&lt;/div&gt;&lt;div&gt;&lt;font style=&quot;font-size: 20px;&quot;&gt;- Fish&lt;/font&gt;&lt;/div&gt;&lt;div&gt;&lt;font style=&quot;font-size: 20px;&quot;&gt;- Elvish&lt;/font&gt;&lt;/div&gt;" style="text;html=1;whiteSpace=wrap;overflow=hidden;rounded=0;fontColor=light-dark(#000000,#000000);" vertex="1" parent="RPQStguwNUF31plh696X-48">
          <mxGeometry y="161.25" width="120" height="160" as="geometry" />
        </mxCell>
        <mxCell id="RPQStguwNUF31plh696X-33" style="edgeStyle=orthogonalEdgeStyle;rounded=0;orthogonalLoop=1;jettySize=auto;html=1;exitX=1;exitY=0.25;exitDx=0;exitDy=0;entryX=0;entryY=0.75;entryDx=0;entryDy=0;fontColor=light-dark(#000000,#000000);strokeColor=light-dark(#000000,#000000);strokeWidth=3;" edge="1" parent="RPQStguwNUF31plh696X-48" source="RPQStguwNUF31plh696X-30" target="RPQStguwNUF31plh696X-1">
          <mxGeometry relative="1" as="geometry" />
        </mxCell>
        <mxCell id="RPQStguwNUF31plh696X-35" style="edgeStyle=orthogonalEdgeStyle;rounded=0;orthogonalLoop=1;jettySize=auto;html=1;exitX=0;exitY=0.25;exitDx=0;exitDy=0;entryX=0.75;entryY=1;entryDx=0;entryDy=0;fontColor=light-dark(#000000,#000000);strokeColor=light-dark(#000000,#000000);strokeWidth=3;" edge="1" parent="RPQStguwNUF31plh696X-48" source="RPQStguwNUF31plh696X-34" target="RPQStguwNUF31plh696X-1">
          <mxGeometry relative="1" as="geometry" />
        </mxCell>
        <mxCell id="RPQStguwNUF31plh696X-34" value="&lt;div&gt;&lt;font style=&quot;font-size: 25px;&quot;&gt;Package Manager&lt;br&gt;&lt;/font&gt;&lt;/div&gt;&lt;div&gt;&lt;font style=&quot;font-size: 20px;&quot;&gt;- Pacman&lt;/font&gt;&lt;/div&gt;&lt;div&gt;&lt;font style=&quot;font-size: 20px;&quot;&gt;- Yay&lt;/font&gt;&lt;/div&gt;&lt;div&gt;&lt;font style=&quot;font-size: 20px;&quot;&gt;- Paru&lt;/font&gt;&lt;/div&gt;&lt;div&gt;&lt;font style=&quot;font-size: 20px;&quot;&gt;- SPM&lt;/font&gt;&lt;/div&gt;" style="text;html=1;whiteSpace=wrap;overflow=hidden;rounded=0;fontColor=light-dark(#000000,#000000);" vertex="1" parent="RPQStguwNUF31plh696X-48">
          <mxGeometry x="460" y="261.25" width="230" height="160" as="geometry" />
        </mxCell>
        <mxCell id="RPQStguwNUF31plh696X-38" style="edgeStyle=orthogonalEdgeStyle;rounded=0;orthogonalLoop=1;jettySize=auto;html=1;entryX=0.5;entryY=0;entryDx=0;entryDy=0;fontColor=light-dark(#000000,#000000);strokeColor=light-dark(#000000,#000000);strokeWidth=3;" edge="1" parent="RPQStguwNUF31plh696X-48" source="RPQStguwNUF31plh696X-37" target="RPQStguwNUF31plh696X-1">
          <mxGeometry relative="1" as="geometry" />
        </mxCell>
        <mxCell id="RPQStguwNUF31plh696X-37" value="&lt;div&gt;&lt;font style=&quot;font-size: 25px;&quot;&gt;GUI or TTY&lt;/font&gt;&lt;/div&gt;&lt;div&gt;&lt;font style=&quot;font-size: 25px;&quot;&gt;Install&lt;/font&gt;&lt;/div&gt;" style="text;html=1;align=center;verticalAlign=middle;resizable=0;points=[];autosize=1;strokeColor=none;fillColor=none;fontColor=light-dark(#000000,#000000);" vertex="1" parent="RPQStguwNUF31plh696X-48">
          <mxGeometry x="255" width="170" height="70" as="geometry" />
        </mxCell>
        <mxCell id="RPQStguwNUF31plh696X-41" style="edgeStyle=orthogonalEdgeStyle;rounded=0;orthogonalLoop=1;jettySize=auto;html=1;entryX=0.5;entryY=1;entryDx=0;entryDy=0;exitX=1;exitY=0.25;exitDx=0;exitDy=0;fontColor=light-dark(#000000,#000000);strokeColor=light-dark(#000000,#000000);strokeWidth=3;" edge="1" parent="RPQStguwNUF31plh696X-48" source="RPQStguwNUF31plh696X-40">
          <mxGeometry relative="1" as="geometry">
            <mxPoint x="150" y="360" as="sourcePoint" />
            <mxPoint x="300" y="251.25" as="targetPoint" />
            <Array as="points">
              <mxPoint x="180" y="360" />
              <mxPoint x="180" y="330" />
              <mxPoint x="300" y="330" />
            </Array>
          </mxGeometry>
        </mxCell>
        <mxCell id="RPQStguwNUF31plh696X-40" value="&lt;div&gt;&lt;font style=&quot;font-size: 25px;&quot;&gt;Bootloader&lt;/font&gt;&lt;/div&gt;&lt;div&gt;&lt;font style=&quot;font-size: 20px;&quot;&gt;- rEFInd&lt;/font&gt;&lt;/div&gt;&lt;div&gt;&lt;font style=&quot;font-size: 20px;&quot;&gt;- GNU Grub&lt;/font&gt;&lt;/div&gt;&lt;div&gt;&lt;font style=&quot;font-size: 20px;&quot;&gt;- Systemd-boot&lt;/font&gt;&lt;/div&gt;" style="text;html=1;whiteSpace=wrap;overflow=hidden;rounded=0;fontColor=light-dark(#000000,#000000);" vertex="1" parent="RPQStguwNUF31plh696X-48">
          <mxGeometry y="330" width="170" height="120" as="geometry" />
        </mxCell>
        <mxCell id="RPQStguwNUF31plh696X-44" style="edgeStyle=orthogonalEdgeStyle;rounded=0;orthogonalLoop=1;jettySize=auto;html=1;exitX=1;exitY=0.25;exitDx=0;exitDy=0;entryX=0.435;entryY=0.99;entryDx=0;entryDy=0;entryPerimeter=0;fontColor=light-dark(#000000,#000000);strokeColor=light-dark(#000000,#000000);strokeWidth=3;" edge="1" parent="RPQStguwNUF31plh696X-48" source="RPQStguwNUF31plh696X-43" target="RPQStguwNUF31plh696X-1">
          <mxGeometry relative="1" as="geometry">
            <Array as="points">
              <mxPoint x="240" y="547" />
              <mxPoint x="240" y="410" />
              <mxPoint x="332" y="410" />
            </Array>
          </mxGeometry>
        </mxCell>
        <mxCell id="RPQStguwNUF31plh696X-45" value="&lt;div&gt;&lt;font style=&quot;font-size: 25px;&quot;&gt;Packages&lt;/font&gt;&lt;/div&gt;&lt;div&gt;&lt;font style=&quot;font-size: 20px;&quot;&gt;[Mandatory]&lt;/font&gt;&lt;/div&gt;&lt;div&gt;&lt;font style=&quot;font-size: 20px;&quot;&gt;- Micro/Vim/Neovim/Emacs&lt;/font&gt;&lt;/div&gt;&lt;div&gt;&lt;font style=&quot;font-size: 20px;&quot;&gt;- Sudo/Doas&lt;/font&gt;&lt;/div&gt;&lt;div&gt;&lt;font style=&quot;font-size: 20px;&quot;&gt;- Shell&lt;/font&gt;&lt;/div&gt;&lt;div&gt;&lt;font style=&quot;font-size: 20px;&quot;&gt;&lt;br&gt;&lt;/font&gt;&lt;/div&gt;&lt;div&gt;&lt;font style=&quot;font-size: 20px;&quot;&gt;[Optional]&lt;/font&gt;&lt;/div&gt;&lt;div&gt;&lt;font style=&quot;font-size: 20px;&quot;&gt;- Firefox/Zen/Chromium&lt;/font&gt;&lt;/div&gt;&lt;div&gt;&lt;font style=&quot;font-size: 20px;&quot;&gt;- VSCode/VSCodium&lt;/font&gt;&lt;/div&gt;&lt;div&gt;&lt;font style=&quot;font-size: 20px;&quot;&gt;- LibreOffice&lt;/font&gt;&lt;/div&gt;&lt;div&gt;&lt;font style=&quot;font-size: 20px;&quot;&gt;- Yazi/Ranger&lt;/font&gt;&lt;/div&gt;&lt;div&gt;&lt;font style=&quot;font-size: 20px;&quot;&gt;- Steam&lt;/font&gt;&lt;/div&gt;&lt;div&gt;&lt;font style=&quot;font-size: 20px;&quot;&gt;- VLC/MPV&lt;/font&gt;&lt;/div&gt;&lt;div&gt;&lt;font style=&quot;font-size: 20px;&quot;&gt;- Solarvim&lt;/font&gt;&lt;/div&gt;&lt;div&gt;&lt;font style=&quot;font-size: 20px;&quot;&gt;- Flatpak&lt;/font&gt;&lt;/div&gt;&lt;div&gt;&lt;font style=&quot;font-size: 20px;&quot;&gt;- Kitty/Ghostty/Alacritty&lt;/font&gt;&lt;/div&gt;&lt;div&gt;&lt;font style=&quot;font-size: 20px;&quot;&gt;- WM/DE&lt;/font&gt;&lt;/div&gt;" style="text;html=1;whiteSpace=wrap;overflow=hidden;rounded=0;fontColor=light-dark(#000000,#000000);" vertex="1" parent="RPQStguwNUF31plh696X-48">
          <mxGeometry x="460" y="421.25" width="310" height="428.75" as="geometry" />
        </mxCell>
        <mxCell id="RPQStguwNUF31plh696X-46" style="edgeStyle=orthogonalEdgeStyle;rounded=0;orthogonalLoop=1;jettySize=auto;html=1;exitX=0;exitY=0.25;exitDx=0;exitDy=0;entryX=0.577;entryY=0.99;entryDx=0;entryDy=0;entryPerimeter=0;fontColor=light-dark(#000000,#000000);strokeColor=light-dark(#000000,#000000);strokeWidth=3;" edge="1" parent="RPQStguwNUF31plh696X-48" source="RPQStguwNUF31plh696X-45" target="RPQStguwNUF31plh696X-1">
          <mxGeometry relative="1" as="geometry" />
        </mxCell>
      </root>
    </mxGraphModel>
  </diagram>
</mxfile>
